<svg width="20" height="20" viewBox="0 0 20 20" fill="none" xmlns="http://www.w3.org/2000/svg">
<circle cx="9.97174" cy="9.97174" r="9.97174" fill="#D4DE5C"/>
<path d="M10.156 13.1133C9.50448 13.1133 8.94499 12.9703 8.47756 12.6842C8.01297 12.398 7.65461 12.0029 7.40248 11.4986C7.15319 10.9915 7.02854 10.408 7.02854 9.74789C7.02854 9.085 7.15602 8.50001 7.41098 7.99292C7.66594 7.483 8.02572 7.0864 8.49031 6.80311C8.95773 6.51699 9.51014 6.37393 10.1475 6.37393C10.6773 6.37393 11.1461 6.47166 11.5541 6.66713C11.9648 6.85977 12.292 7.13314 12.5357 7.48725C12.7793 7.83853 12.9181 8.2493 12.9521 8.71955H11.4818C11.4223 8.4051 11.2807 8.14306 11.0569 7.93343C10.8359 7.72096 10.5399 7.61473 10.1688 7.61473C9.85434 7.61473 9.57813 7.69972 9.34017 7.86969C9.10221 8.03683 8.91666 8.27762 8.78351 8.59207C8.6532 8.90652 8.58804 9.2833 8.58804 9.72239C8.58804 10.1672 8.6532 10.5496 8.78351 10.8697C8.91382 11.187 9.09654 11.432 9.33167 11.6048C9.56964 11.7748 9.84867 11.8598 10.1688 11.8598C10.3954 11.8598 10.598 11.8173 10.7764 11.7323C10.9577 11.6445 11.1093 11.5184 11.2311 11.3541C11.3529 11.1898 11.4365 10.9901 11.4818 10.755H12.9521C12.9153 11.2167 12.7793 11.6261 12.5442 11.983C12.309 12.3371 11.9889 12.6148 11.5838 12.8159C11.1787 13.0142 10.7028 13.1133 10.156 13.1133Z" fill="white"/>
</svg>
